<svg xmlns="http://www.w3.org/2000/svg" viewBox="0 0 403.15 107.65"><defs><style>.cls-1,.cls-2{fill:#fff;}.cls-2,.cls-4{stroke:#fff;}.cls-2,.cls-3,.cls-4,.cls-5{stroke-miterlimit:10;}.cls-3,.cls-4,.cls-5,.cls-6{fill:none;}.cls-3{stroke:#231f20;}.cls-5{stroke:#fff200;}.cls-7,.cls-8{font-size:100px;font-family:OCRAExtended, OCR A Extended;}.cls-7{fill:#c0c2c4;}.cls-8{fill:#ffd203;}</style></defs><g id="Layer_2" data-name="Layer 2"><g id="Layer_1-2" data-name="Layer 1"><rect class="cls-1" x="-0.15" y="12.39" width="70.6" height="9.99" rx="2.62" transform="translate(-3.47 10.57) rotate(-16.3)"/><rect class="cls-2" x="2.28" y="30.37" width="75.83" height="12.47"/><rect class="cls-1" x="4.73" y="42.84" width="70.96" height="48.04"/><line class="cls-3" x1="25.25" y1="71.34" x2="25.39" y2="81.73"/><line class="cls-4" x1="8.59" y1="26.6" x2="8.44" y2="34.92"/><line class="cls-4" x1="1.45" y1="34.69" x2="8.93" y2="34.69"/><line class="cls-4" x1="11.13" y1="26.77" x2="14.76" y2="39.08"/><path class="cls-4" d="M4,26.67c0,1.31.55,2.38,1.23,2.38S6.49,28,6.49,26.67s-.56-2.38-1.23-2.38S4,25.36,4,26.67Z"/><line class="cls-4" x1="1.46" y1="26.6" x2="1.46" y2="19.06"/><line class="cls-4" x1="7.03" y1="19.06" x2="8.85" y2="21.35"/><line class="cls-4" x1="8.59" y1="26.6" x2="8.51" y2="20.6"/><path class="cls-5" d="M68.46,13.06,4.33,31.65a1.76,1.76,0,0,1-2.18-1.34L.56,24a1.93,1.93,0,0,1,1.25-2.33L65.94,3.08a1.77,1.77,0,0,1,2.18,1.34l1.59,6.3A1.92,1.92,0,0,1,68.46,13.06Z"/><rect class="cls-6" x="2.28" y="30.37" width="75.83" height="12.47"/><rect class="cls-6" x="3.5" y="41.92" width="73.41" height="49.74"/><rect class="cls-5" x="4.73" y="42.84" width="70.96" height="48.04"/><line class="cls-3" x1="8.5" y1="52.08" x2="72.35" y2="52.23"/><line class="cls-3" x1="8.05" y1="61.63" x2="72.35" y2="61.94"/><line class="cls-3" x1="8.5" y1="71.02" x2="71.6" y2="71.17"/><line class="cls-3" x1="8.5" y1="81.73" x2="71.9" y2="81.73"/><line class="cls-3" x1="54.44" y1="71.1" x2="54.76" y2="82.14"/><line class="cls-5" x1="9.41" y1="30.37" x2="9.26" y2="38.68"/><line class="cls-5" x1="2.28" y1="38.45" x2="9.75" y2="38.45"/><line class="cls-3" x1="11.95" y1="30.54" x2="15.59" y2="42.84"/><line class="cls-3" x1="19.42" y1="30.37" x2="23.18" y2="42.3"/><line class="cls-3" x1="27.78" y1="30.94" x2="32.32" y2="42.46"/><line class="cls-3" x1="35.5" y1="30.37" x2="40.43" y2="42.84"/><line class="cls-3" x1="43.69" y1="30.37" x2="48.54" y2="42.84"/><line class="cls-3" x1="52.64" y1="30.37" x2="57.64" y2="42.22"/><line class="cls-3" x1="60.98" y1="30.37" x2="66.09" y2="43.25"/><line class="cls-3" x1="69.04" y1="30.37" x2="74.63" y2="42.38"/><path class="cls-3" d="M4.85,30.43c0,1.32.55,2.38,1.23,2.38s1.23-1.06,1.23-2.38-.55-2.37-1.23-2.37S4.85,29.12,4.85,30.43Z"/><rect class="cls-5" x="2.28" y="30.37" width="75.83" height="12.47"/><line class="cls-5" x1="2.28" y1="30.37" x2="2.28" y2="22.82"/><line class="cls-5" x1="2.13" y1="23.42" x2="2.8" y2="22.7"/><line class="cls-5" x1="7.86" y1="22.82" x2="9.67" y2="25.11"/><line class="cls-5" x1="1.94" y1="22.82" x2="8.5" y2="22.82"/><line class="cls-5" x1="9.41" y1="30.37" x2="9.34" y2="24.36"/><path class="cls-3" d="M12.34,29.33,14.23,18.1Z"/><line class="cls-3" x1="22.26" y1="15.75" x2="20.39" y2="27"/><line class="cls-3" x1="30.08" y1="13.57" x2="29.45" y2="24.28"/><line class="cls-3" x1="38.01" y1="11.18" x2="37.53" y2="22.03"/><line class="cls-3" x1="45.46" y1="9.02" x2="45.54" y2="19.71"/><line class="cls-3" x1="61.06" y1="15.2" x2="62.1" y2="4.2"/><line class="cls-3" x1="52.73" y1="6.91" x2="53.15" y2="17.37"/><line class="cls-5" x1="11.85" y1="29.33" x2="63.53" y2="14.36"/><line class="cls-5" x1="11.77" y1="18.93" x2="64.26" y2="3.57"/><text class="cls-7" transform="translate(84.13 82.45) scale(1.05 1)">DIMAX</text><text class="cls-8" transform="translate(86.28 89.98) scale(1.05 1)">DIMAX</text></g></g></svg>